<svg width="865" height="840" viewBox="0 0 865 840" fill="none" xmlns="http://www.w3.org/2000/svg">
<mask id="mask0_2877_45606" style="mask-type:luminance" maskUnits="userSpaceOnUse" x="0" y="0" width="865" height="840">
<path d="M829.402 565.203C786.402 666.203 716.902 735.87 620.902 774.203C524.902 812.536 423.069 834.036 315.402 838.703C207.735 843.37 129.402 797.703 80.4024 701.703C31.4024 605.703 4.73538 508.87 0.402379 411.203C-3.93092 313.536 26.7354 228.37 92.4024 155.703C158.069 83.0363 239.069 35.3703 335.402 12.7033C431.735 -9.96339 530.902 -2.29669 632.902 35.7033C734.902 73.7033 803.902 146.203 839.902 253.203C875.902 360.203 872.402 464.203 829.402 565.203Z" fill="white"/>
</mask>
<g mask="url(#mask0_2877_45606)">
<path d="M829.402 565.203C786.402 666.203 716.902 735.87 620.902 774.203C524.902 812.536 423.069 834.036 315.402 838.703C207.735 843.37 129.402 797.703 80.4024 701.703C31.4024 605.703 4.73538 508.87 0.402379 411.203C-3.93092 313.536 26.7354 228.37 92.4024 155.703C158.069 83.0363 239.069 35.3703 335.402 12.7033C431.735 -9.96339 530.902 -2.29669 632.902 35.7033C734.902 73.7033 803.902 146.203 839.902 253.203C875.902 360.203 872.402 464.203 829.402 565.203Z" fill="url(#paint0_linear_2877_45606)"/>
</g>
<defs>
<linearGradient id="paint0_linear_2877_45606" x1="1504.51" y1="-156.706" x2="-103.833" y2="128.929" gradientUnits="userSpaceOnUse">
<stop stop-color="#040231"/>
<stop offset="0.465" stop-color="#AF19FA"/>
<stop offset="0.92" stop-color="#5F04FB"/>
</linearGradient>
</defs>
</svg>
