<svg width="758" height="795" viewBox="0 0 758 795" fill="none" xmlns="http://www.w3.org/2000/svg">
<mask id="mask0_2877_45611" style="mask-type:luminance" maskUnits="userSpaceOnUse" x="0" y="0" width="758" height="795">
<path d="M749.718 496.252C748.718 593.252 704.885 675.252 618.218 742.252C531.551 809.252 443.885 812.419 355.218 751.752C266.551 691.085 180.218 635.252 96.2182 584.252C12.2182 533.252 -16.7819 460.085 9.21822 364.752C35.2182 269.419 71.8852 182.252 119.218 103.252C166.551 24.2519 235.051 -9.41506 324.718 2.25194C414.385 13.9189 509.885 24.2519 611.218 33.2519C712.551 42.2519 761.218 97.4189 757.218 198.752C753.218 300.085 750.718 399.252 749.718 496.252Z" fill="white"/>
</mask>
<g mask="url(#mask0_2877_45611)">
<path d="M749.718 496.252C748.718 593.252 704.885 675.252 618.218 742.252C531.551 809.252 443.885 812.419 355.218 751.752C266.551 691.085 180.218 635.252 96.2182 584.252C12.2182 533.252 -16.7819 460.085 9.21822 364.752C35.2182 269.419 71.8852 182.252 119.218 103.252C166.551 24.2519 235.051 -9.41506 324.718 2.25194C414.385 13.9189 509.885 24.2519 611.218 33.2519C712.551 42.2519 761.218 97.4189 757.218 198.752C753.218 300.085 750.718 399.252 749.718 496.252Z" fill="url(#paint0_linear_2877_45611)"/>
</g>
<defs>
<linearGradient id="paint0_linear_2877_45611" x1="1318.18" y1="-148.482" x2="-97.2473" y2="83.9607" gradientUnits="userSpaceOnUse">
<stop stop-color="#040231"/>
<stop offset="0.465" stop-color="#AF19FA"/>
<stop offset="0.92" stop-color="#5F04FB"/>
</linearGradient>
</defs>
</svg>
